HIERARCHY
ROOT Hips
{
	OFFSET 0.00000 0.00000 0.00000
	CHANNELS 6 Xposition Yposition Zposition Yrotation Zrotation Xrotation 
	JOINT Lumbar
	{
		OFFSET 0 0 0
		CHANNELS 3 Zrotation Xrotation Yrotation
		JOINT Neck
		{
			OFFSET 0.00 0.2701 0.00
			CHANNELS 3 Zrotation Xrotation Yrotation
			End Site
			{
				OFFSET 0.00 0.1379 0.00
			}
		}
		JOINT RightShoulder
		{
			OFFSET 0.0119 0.2289 0.1181
			CHANNELS 3 Zrotation Xrotation Yrotation
			JOINT RightElbow
			{
				OFFSET 0.00 -0.1475 0.00
				CHANNELS 2 Zrotation Yrotation
				JOINT RightWrist
				{
					OFFSET 0.00 -0.1605 0.00
					CHANNELS 2 Zrotation Xrotation
					End Site
					{
						OFFSET 0.0040 -0.1068 0.0006
					}
				}
			}
		}
		JOINT LeftShoulder
		{
			OFFSET 0.0119 0.2289 -0.1181
			CHANNELS 3 Zrotation Xrotation Yrotation
			JOINT LeftElbow
			{
				OFFSET 0.00 -0.1475 0.00
				CHANNELS 2 Zrotation Yrotation
				JOINT LeftWrist
				{
					OFFSET 0.00 -0.1605 0.00
					CHANNELS 2 Zrotation Xrotation
					End Site
					{
						OFFSET 0.0040 -0.1068 -0.0006
					}
				}
			}
		}
	}
	JOINT RightHip
	{
		OFFSET 0.0316 -0.0424 0.0458
		CHANNELS 3 Zrotation Xrotation Yrotation
		JOINT RightKnee
		{
			OFFSET 0.00 -0.2438 0.00
			CHANNELS 1 Zrotation
			JOINT RightAnkle
			{
				OFFSET 0.00 -0.2449 0.00
				CHANNELS 3 Zrotation Xrotation Yrotation
				End Site
				{
					OFFSET 0.1237 -0.0542 0.0051
				}
			}
		}
	}
	JOINT LeftHip
	{
		OFFSET 0.0316 -0.0424 -0.0458
		CHANNELS 3 Zrotation Xrotation Yrotation
		JOINT LeftKnee
		{
			OFFSET 0.00 -0.2438 0.00
			CHANNELS 1 Zrotation
			JOINT LeftAnkle
			{
				OFFSET 0.00 -0.2449 0.00
				CHANNELS 3 Zrotation Xrotation Yrotation
				End Site
				{
					OFFSET 0.1237 -0.0542 -0.0051
				}
			}
		}
	}
}
MOTION
Frames: 30
Frame Time: 0.02
0.0553 0.06343 0.03307 165.60324 0 -15.86145 -10.5858 4.13924 2.31314 -40.13965 2.6174 5.62881 27.11762 -46.69906 -23.96562 86.03173 104.63954 -34.97926 -6.285 35.75402 28.08678 26.26638 90.72841 -118.11479 -52.17458 7.14525 124.41506 2.38525 -39.90916 -126.1325 14.84704 6.77382 14.78142 117.5287 8.36837 40.5112 -139.99381 18.99354 -8.38047 -4.87447
0.05482 0.06344 0.03243 165.60264 0 -15.48097 -10.57621 3.96417 2.20705 -40.08323 2.64236 5.56042 26.89951 -46.62886 -24.15472 86.4502 104.84724 -35.03573 -6.30663 35.45756 27.93985 26.67322 91.01422 -118.01258 -52.20551 7.12561 124.36481 2.48826 -39.89755 -126.21346 14.6998 6.81518 14.72478 117.72327 8.05462 40.45128 -140.0956 19.2499 -8.58378 -4.67418
0.05429 0.06338 0.03148 165.66687 0 -15.02639 -10.55665 3.70905 2.07769 -40.00809 2.68305 5.48199 26.63669 -46.48394 -24.34888 86.8589 105.05669 -35.09713 -6.32772 35.13142 27.78484 27.09296 91.31781 -117.92469 -52.24379 7.10383 124.31515 2.55162 -39.91241 -126.33068 14.69963 6.70387 14.76074 117.99769 7.66752 40.37562 -140.22982 19.51462 -8.80671 -4.46496
0.05379 0.06335 0.03067 165.70205 0 -14.60524 -10.544 3.49282 1.96225 -39.93844 2.7109 5.40391 26.39469 -46.36563 -24.53515 87.27131 105.26607 -35.15944 -6.34894 34.81764 27.63601 27.50556 91.61305 -117.82638 -52.27562 7.08308 124.26692 2.63484 -39.91443 -126.43017 14.62657 6.66543 14.75184 118.22975 7.32595 40.31132 -140.35059 19.7713 -9.03395 -4.26984
0.05325 0.06332 0.02987 165.73799 0 -14.1817 -10.5211 3.26313 1.83231 -39.88079 2.76268 5.34273 26.14755 -46.27664 -24.74785 87.68557 105.47453 -35.20775 -6.37093 34.50949 27.47724 27.92355 91.90823 -117.7426 -52.32055 7.06193 124.21118 2.70937 -39.91897 -126.53606 14.56942 6.61503 14.75128 118.48977 6.92699 40.22932 -140.4667 20.04947 -9.20888 -4.02958
0.05278 0.06326 0.02897 165.78679 0 -13.74691 -10.51736 3.0439 1.72731 -39.79434 2.76831 5.24438 25.90243 -46.11005 -24.90488 88.09391 105.68484 -35.28626 -6.39115 34.18231 27.33665 28.33301 92.20829 -117.63325 -52.34022 7.04118 124.17112 2.79276 -39.92491 -126.63663 14.51798 6.55228 14.75669 118.71074 6.63135 40.1799 -140.59977 20.28331 -9.49207 -3.88089
0.05247 0.06315 0.02788 165.85529 0 -13.29866 -10.56781 2.86933 1.69551 -39.6288 2.64349 5.04475 25.66428 -45.7401 -24.91592 88.49075 105.89594 -35.45218 -6.40566 33.80882 27.25269 28.71979 92.51673 -117.44344 -52.28534 7.02177 124.17691 2.91246 -39.92814 -126.71573 14.44376 6.49185 14.75536 118.79001 6.65289 40.23123 -140.77376 20.39492 -10.12055 -4.00511
0.05222 0.06301 0.0267 165.93415 0 -12.84235 -10.63812 2.70929 1.68999 -39.43582 2.47148 4.80835 25.43183 -45.2959 -24.86879 88.88164 106.10944 -35.64775 -6.41854 33.41736 27.18641 29.09656 92.82978 -117.22887 -52.20561 7.00291 124.19796 3.04215 -39.93203 -126.78766 14.37206 6.424 14.75743 118.82896 6.77976 40.31485 -140.96322 20.4608 -10.84917 -4.2195
0.05194 0.06288 0.02556 166.00785 0 -12.39039 -10.70012 2.5452 1.67327 -39.25809 2.32068 4.58965 25.20329 -44.89101 -24.84216 89.27395 106.32371 -35.82613 -6.43268 33.03451 27.10914 29.47566 93.14134 -117.02987 -52.13876 6.98397 124.21046 3.16611 -39.93582 -126.86143 14.30225 6.35977 14.75877 118.89581 6.84983 40.37906 -141.14422 20.54561 -11.49696 -4.381
0.05165 0.06276 0.02441 166.08572 0 -11.93233 -10.75873 2.36673 1.65229 -39.06768 2.17178 4.36649 24.94558 -44.46107 -24.84088 89.67162 106.52926 -36.01932 -6.44453 32.64832 27.04423 29.8657 93.4509 -116.81271 -52.06418 6.9642 124.23015 3.29395 -39.93965 -126.94264 14.22456 6.28934 14.75979 118.92686 6.9533 40.46211 -141.33248 20.63834 -12.28935 -4.59068
0.05142 0.06262 0.02327 166.15657 0 -11.48671 -10.82925 2.22365 1.64713 -38.89778 2.00708 4.14389 24.75073 -44.0653 -24.77279 90.05649 106.75473 -36.18995 -6.46086 32.26575 26.95766 30.22901 93.76556 -116.62782 -52.00132 6.94637 124.238 3.41629 -39.9432 -127.00596 14.16204 6.23189 14.76114 119.01959 7.01522 40.51456 -141.50877 20.70391 -12.81058 -4.72369
0.05135 0.06239 0.0222 166.20455 0 -11.0722 -10.92792 2.16727 1.67588 -38.78815 1.81395 3.93299 24.7272 -43.79351 -24.5349 90.41022 107.02452 -36.28 -6.48929 31.89293 26.80895 30.53225 94.09275 -116.53367 -51.96342 6.93331 124.21355 3.52382 -39.94578 -127.02327 14.14002 6.21389 14.76184 119.31157 6.91981 40.46788 -141.64874 20.70298 -12.50219 -4.60445
0.05134 0.06215 0.02116 166.24494 0 -10.67189 -11.03795 2.14783 1.72046 -38.70071 1.60585 3.72373 24.76721 -43.55673 -24.23142 90.75065 107.31635 -36.3484 -6.52244 31.52538 26.63748 30.80632 94.42496 -116.4735 -51.94094 6.92225 124.17595 3.62512 -39.94793 -127.02237 14.13262 6.20958 14.76245 119.66324 6.78223 40.39055 -141.77582 20.67684 -11.92749 -4.4081
0.05129 0.06192 0.02011 166.28911 0 -10.26885 -11.14271 2.11673 1.76001 -38.6053 1.40209 3.513 24.77884 -43.29701 -23.95791 91.09562 107.60447 -36.43385 -6.55389 31.15862 26.47517 31.08682 94.75502 -116.40076 -51.91986 6.91061 124.14154 3.72766 -39.95014 -127.02851 14.11831 6.19866 14.76311 119.97441 6.67569 40.33184 -141.90836 20.66383 -11.51204 -4.25971
0.05127 0.06166 0.01903 166.33233 0 -9.84962 -11.24848 2.06432 1.79102 -38.50026 1.20689 3.30409 24.78827 -43.06505 -23.68262 91.44739 107.86526 -36.48969 -6.58334 30.77778 26.31852 31.39759 95.08448 -116.31553 -51.8613 6.89772 124.11911 3.83733 -39.95289 -127.03946 14.10531 6.18923 14.76383 120.33985 6.5237 40.25476 -142.04335 20.64178 -10.94027 -4.06139
0.05123 0.06146 0.01801 166.37554 0 -9.46777 -11.35473 2.06504 1.84363 -38.42056 0.99116 3.09218 24.81768 -42.78363 -23.39504 91.78109 108.18919 -36.60193 -6.61819 30.42771 26.14439 31.63627 95.41659 -116.2641 -51.88621 6.88778 124.06881 3.93042 -39.95446 -127.03636 14.09298 6.17982 14.76444 120.60799 6.45369 40.20785 -142.16971 20.63365 -10.62762 -3.94574
0.05113 0.06143 0.01712 166.42067 0 -9.18441 -11.4582 2.20222 1.94844 -38.40872 0.72081 2.87273 24.88387 -42.36542 -23.09929 92.07496 108.67345 -36.87272 -6.6659 30.16245 25.92775 31.70173 95.75214 -116.30399 -52.12495 6.88673 123.9411 3.9801 -39.95264 -126.99725 14.07967 6.16879 14.76424 120.58372 6.63104 40.25491 -142.27754 20.66631 -11.11185 -4.09274
0.05103 0.06146 0.01629 166.46594 0 -8.93855 -11.56187 2.39175 2.07494 -38.42125 0.43095 2.65029 24.96869 -41.89508 -22.79158 92.34959 109.22215 -37.20116 -6.71906 29.92818 25.69414 31.6919 96.09032 -116.37627 -52.44908 6.88844 123.78632 4.01296 -39.94978 -126.94498 14.06691 6.15659 14.76431 120.46133 6.88983 40.33261 -142.37663 20.71478 -11.86251 -4.32224
0.05093 0.06147 0.01543 166.51106 0 -8.67629 -11.66625 2.55803 2.19375 -38.42048 0.15122 2.42851 25.04663 -41.44343 -22.48368 92.62893 109.74693 -37.50495 -6.77025 29.67864 25.46817 31.70467 96.42947 -116.42897 -52.74351 6.88796 123.64641 4.05311 -39.94747 -126.89981 14.0527 6.14447 14.76413 120.3901 7.10379 40.39405 -142.47826 20.75877 -12.48004 -4.50339
0.05082 0.06148 0.01455 166.55641 0 -8.41146 -11.76776 2.72334 2.3041 -38.42947 -0.13477 2.20924 25.11937 -41.01387 -22.19853 92.92595 110.24959 -37.80225 -6.81937 29.43291 25.24195 31.76666 96.76111 -116.50095 -53.0026 6.89112 123.49561 4.09516 -39.9445 -126.84919 14.04184 6.13665 14.76315 120.29336 7.34933 40.46437 -142.5856 20.79047 -13.13921 -4.72786
0.05073 0.06149 0.01374 166.60126 0 -8.16115 -11.875 2.90263 2.43687 -38.42413 -0.41171 1.98463 25.20744 -40.52572 -21.86236 93.18038 110.81365 -38.12603 -6.87419 29.18828 25.01222 31.70711 97.10712 -116.54306 -53.35213 6.8878 123.36074 4.12857 -39.94308 -126.80716 14.02676 6.11701 14.76558 120.22547 7.54901 40.52379 -142.67903 20.85179 -13.77837 -4.88253
0.05068 0.06149 0.01311 166.64607 0 -7.93818 -11.99929 3.10753 2.62732 -38.36882 -0.66231 1.74086 25.32495 -39.88663 -21.40264 93.33338 111.52804 -38.51757 -6.9418 28.92458 24.77947 31.34336 97.50732 -116.46798 -53.95837 6.86196 123.28127 4.14898 -39.94229 -126.79129 13.97394 6.08704 14.76189 120.26293 7.60153 40.5463 -142.73691 20.99187 -14.29813 -4.82596
0.05064 0.06148 0.01255 166.69023 0 -7.72923 -12.12905 3.32459 2.8392 -38.29889 -0.90234 1.49289 25.45833 -39.19079 -20.88967 93.44203 112.30196 -38.93223 -7.01515 28.66378 24.54345 30.85753 97.91865 -116.3661 -54.64746 6.83018 123.21823 4.16026 -39.94365 -126.78479 13.92041 6.04212 14.76376 120.33223 7.60525 40.55681 -142.78099 21.16109 -14.78945 -4.69645
0.0506 0.06148 0.01197 166.73375 0 -7.51602 -12.25542 3.536 3.04064 -38.2386 -1.14497 1.25008 25.58978 -38.52174 -20.39187 93.56363 113.05155 -39.33072 -7.08702 28.41094 24.30737 30.4193 98.31543 -116.29445 -55.28016 6.80377 123.14424 4.17103 -39.94686 -126.77459 13.88573 5.9882 14.77415 120.38553 7.63208 40.57246 -142.83102 21.31666 -15.29475 -4.59946
0.05055 0.06148 0.01136 166.78092 0 -7.29483 -12.38561 3.74964 3.24631 -38.16689 -1.39788 0.993 25.70026 -37.84577 -19.93147 93.71527 113.79434 -39.75522 -7.15469 28.11931 24.07712 30.01198 98.75397 -116.14962 -55.99467 6.76643 123.08285 4.19998 -39.93886 -126.76148 13.77789 5.99655 14.74097 120.44181 7.65841 40.5904 -142.88224 21.47487 -15.8057 -4.50754
0.05051 0.06147 0.01082 166.8207 0 -7.0936 -12.50914 3.96099 3.44736 -38.11471 -1.62627 0.76524 25.85714 -37.17252 -19.38101 93.79368 114.56151 -40.13015 -7.23194 27.90965 23.8343 29.5119 99.10616 -116.14807 -56.5577 6.75012 123.00093 4.19027 -39.95376 -126.75696 13.81595 5.87717 14.79604 120.50085 7.67239 40.60042 -142.92764 21.63383 -16.29344 -4.3872
0.05046 0.06145 0.01045 166.83688 0 -6.93967 -12.61283 4.16124 3.63547 -38.12401 -1.79227 0.61463 26.14524 -36.51151 -18.59249 93.68405 115.40739 -40.36337 -7.33802 27.91786 23.55654 28.7894 99.23425 -116.56848 -56.67839 6.79578 122.84561 4.06604 -40.04022 -126.77274 14.31313 5.35976 15.12743 120.55886 7.67053 40.59063 -142.96209 21.79163 -16.7328 -4.2011
0.0504 0.06142 0.01015 166.84608 0 -6.80599 -12.70962 4.3587 3.81715 -38.15267 -1.93333 0.49459 26.47821 -35.85719 -17.71581 93.50175 116.27048 -40.54531 -7.4528 28.00967 23.26653 27.97776 99.272 -117.13005 -56.64397 6.86233 122.67137 3.90503 -40.14823 -126.7971 14.94816 4.72234 15.54196 120.61915 7.65656 40.57329 -142.99093 21.94831 -17.14609 -3.98937
0.05035 0.0614 0.00983 166.86089 0 -6.66567 -12.80967 4.5585 3.99836 -38.16967 -2.08395 0.36369 26.78587 -35.20603 -16.88098 93.35058 117.10844 -40.75011 -7.56109 28.06827 22.98291 27.20432 99.3397 -117.61396 -56.68269 6.91771 122.51454 3.76771 -40.24031 -126.81841 15.48143 4.17346 15.89509 120.67951 7.64336 40.55985 -143.0212 22.1029 -17.56518 -3.79241
0.0503 0.06138 0.00948 166.86613 0 -6.51492 -12.90949 4.75477 4.19466 -38.19803 -2.24182 0.21972 27.11447 -34.52656 -16.03626 93.20573 118.02196 -40.95831 -7.68031 28.1072 22.69573 26.43489 99.45405 -118.15435 -56.71344 6.98 122.32193 3.60126 -40.35745 -126.8366 16.17375 3.48523 16.34463 120.73647 7.64768 40.54406 -143.05556 22.26968 -18.01201 -3.58009
